<?xml version="1.0" standalone="no"?><!DOCTYPE svg PUBLIC "-//W3C//DTD SVG 1.1//EN" "http://www.w3.org/Graphics/SVG/1.1/DTD/svg11.dtd"><svg t="1742479845781" class="icon" viewBox="0 0 1024 1024" version="1.1" xmlns="http://www.w3.org/2000/svg" p-id="2992" width="16" height="16" xmlns:xlink="http://www.w3.org/1999/xlink"><path d="M503.808 199.168c-28.16 0-51.2-12.8-51.2-28.16v-28.16c0-15.872 23.04-28.16 51.2-28.16s51.2 12.8 51.2 28.16v28.16c0 15.36-23.04 28.16-51.2 28.16z m0 558.592c-28.16 0-51.2-12.8-51.2-28.16v-61.952c0-15.872 23.04-28.16 51.2-28.16s51.2 12.8 51.2 28.16v61.952c0 15.36-23.04 28.16-51.2 28.16z m0-189.44c-28.16 0-51.2-12.8-51.2-28.16V478.208c0-15.872 23.04-28.16 51.2-28.16s51.2 12.8 51.2 28.16v61.952c0 15.36-23.04 28.16-51.2 28.16z m0-184.832c-28.16 0-51.2-12.8-51.2-28.16V293.376c0-15.872 23.04-28.16 51.2-28.16s51.2 12.8 51.2 28.16v61.952c0 15.36-23.04 28.16-51.2 28.16z m0 525.312c-28.16 0-51.2-12.8-51.2-28.16v-28.16c0-15.872 23.04-28.16 51.2-28.16s51.2 12.8 51.2 28.16v28.16c0 15.36-23.04 28.16-51.2 28.16zM301.056 613.376c-7.168 0-14.336-2.56-19.968-8.192-11.264-11.264-11.264-29.184 0-39.936l56.32-56.32-52.736-52.736c-11.264-11.264-11.264-29.184 0-39.936 11.264-11.264 29.184-11.264 39.936 0l72.704 72.704c11.264 11.264 11.264 29.184 0 39.936l-76.288 76.288c-5.632 5.632-12.8 8.192-19.968 8.192z m408.576 0c-7.168 0-14.336-2.56-19.968-8.192l-76.288-76.288c-11.264-11.264-11.264-29.184 0-39.936L686.08 416.256c11.264-11.264 29.184-11.264 39.936 0 11.264 11.264 11.264 29.184 0 39.936l-52.736 52.736 56.32 56.32c11.264 11.264 11.264 29.184 0 39.936-5.632 5.632-12.8 8.192-19.968 8.192z" fill="#428FFC" p-id="2993"></path><path d="M304.64 911.872H251.392c-78.848 0-143.36-64.512-143.36-143.36V257.024c0-78.848 64.512-143.36 143.36-143.36h53.248c22.528 0 40.96 18.432 40.96 40.96s-18.432 40.96-40.96 40.96H251.392c-33.792 0-61.44 27.648-61.44 61.44v511.488c0 33.792 27.648 61.44 61.44 61.44h53.248c22.528 0 40.96 18.432 40.96 40.96s-18.432 40.96-40.96 40.96zM762.88 912.384h-58.88c-22.528 0-40.96-18.432-40.96-40.96s18.432-40.96 40.96-40.96H762.88c33.792 0 61.44-27.648 61.44-61.44V257.536c0-33.792-27.648-61.44-61.44-61.44h-58.88c-22.528 0-40.96-18.432-40.96-40.96s18.432-40.96 40.96-40.96H762.88c78.848 0 143.36 64.512 143.36 143.36v511.488c0 78.848-64.512 143.36-143.36 143.36z" fill="#232D4D" p-id="2994"></path></svg>